<svg width="54" height="54" viewBox="0 0 54 54" fill="none" xmlns="http://www.w3.org/2000/svg">
<rect width="54" height="54" rx="27" fill="#FF6E40"/>
<path d="M34.2195 21.4756C34.1412 21.1821 33.9822 20.8694 33.8645 20.5956C32.4568 17.2124 29.3809 16 26.8973 16C23.5726 16 19.9108 18.2294 19.4219 22.8247V23.7635C19.4219 23.8027 19.4354 24.1547 19.4546 24.3307C19.7286 26.5207 21.4567 28.8482 22.7473 31.0382C24.1358 33.3846 25.5766 35.6928 27.004 37.9999C27.8842 36.4943 28.7612 34.9689 29.6213 33.5022C29.8557 33.0718 30.1278 32.6417 30.3625 32.2308C30.5189 31.9573 30.8177 31.6837 30.9542 31.4292C32.3427 28.8871 34.5775 26.3254 34.5775 23.8027V22.7663C34.5776 22.4928 34.2386 21.5346 34.2195 21.4756ZM26.9582 26.1886C25.9809 26.1886 24.9112 25.6999 24.3831 24.3503C24.3045 24.1355 24.3108 23.705 24.3108 23.6655V23.0593C24.3108 21.3389 25.7716 20.5565 27.0425 20.5565C28.607 20.5565 29.8171 21.8082 29.8171 23.3728C29.8171 24.9373 28.5228 26.1886 26.9582 26.1886Z" fill="#251D1A"/>
</svg>
