<svg width="54" height="54" viewBox="0 0 54 54" fill="none" xmlns="http://www.w3.org/2000/svg">
<rect width="54" height="54" rx="27" fill="#FF6E40"/>
<path d="M36.7057 32.0146C36.7057 32.4402 36.586 32.8347 36.3943 33.1818L30.2652 26.3242L36.3278 21.0199C36.5636 21.3942 36.7057 21.8338 36.7057 22.3089V32.0146ZM26.9998 27.5693L35.4358 20.1881C35.0896 19.9985 34.6998 19.8823 34.2793 19.8823H19.7204C19.2994 19.8823 18.9094 19.9985 18.5646 20.1881L26.9998 27.5693ZM29.3517 27.1228L27.399 28.8324C27.2848 28.9319 27.1426 28.9816 26.9998 28.9816C26.857 28.9816 26.7148 28.9319 26.6006 28.8324L24.6474 27.1227L18.4408 34.0679C18.8128 34.3013 19.2488 34.4411 19.7204 34.4411H34.2793C34.7507 34.4411 35.1869 34.3013 35.5588 34.0679L29.3517 27.1228ZM17.6719 21.0199C17.4361 21.3941 17.2939 21.8338 17.2939 22.3089V32.0146C17.2939 32.4402 17.4131 32.8347 17.6056 33.1818L23.7339 26.323L17.6719 21.0199Z" fill="#251D1A"/>
</svg>
