<svg width="54" height="54" viewBox="0 0 54 54" fill="none" xmlns="http://www.w3.org/2000/svg">
<rect width="54" height="54" rx="27" fill="#FF6E40"/>
<path d="M34.5024 29.763C33.7073 28.978 32.7147 28.978 31.9247 29.763C31.322 30.3605 30.7194 30.9581 30.1269 31.5659C29.9648 31.733 29.8281 31.7684 29.6305 31.657C29.2406 31.4443 28.8253 31.2721 28.4506 31.0392C26.7034 29.9402 25.2398 28.5273 23.9433 26.9371C23.3001 26.147 22.7279 25.3013 22.3278 24.3492C22.2468 24.1567 22.262 24.0301 22.4189 23.8731C23.0216 23.2907 23.6091 22.6931 24.2016 22.0956C25.0271 21.265 25.0271 20.2927 24.1965 19.457C23.7255 18.981 23.2546 18.5151 22.7836 18.039C22.2974 17.5529 21.8163 17.0616 21.3251 16.5805C20.53 15.8057 19.5373 15.8057 18.7473 16.5856C18.1396 17.1832 17.5572 17.7959 16.9393 18.3834C16.3671 18.9253 16.0784 19.5887 16.0176 20.3636C15.9214 21.6246 16.2303 22.8147 16.6659 23.9744C17.5572 26.3749 18.9144 28.507 20.5603 30.4618C22.7836 33.1054 25.4373 35.197 28.5417 36.7061C29.9395 37.3848 31.3879 37.9064 32.9629 37.9925C34.0466 38.0533 34.9886 37.7798 35.7432 36.934C36.2598 36.3567 36.8422 35.83 37.3891 35.278C38.1994 34.4576 38.2045 33.465 37.3992 32.6547C36.437 31.6874 35.4697 30.7252 34.5024 29.763Z" fill="#251D1A"/>
</svg>
