    <svg width="36" height="36" viewBox="0 0 36 36" fill="none" xmlns="http://www.w3.org/2000/svg">
    <rect width="36" height="36" rx="18" fill="#FF6E40"/>
    <path d="M24.1384 20.2606C23.4878 19.6183 22.6757 19.6183 22.0293 20.2606C21.5362 20.7495 21.0431 21.2385 20.5583 21.7357C20.4257 21.8724 20.3139 21.9014 20.1523 21.8103C19.8332 21.6363 19.4934 21.4954 19.1868 21.3048C17.7573 20.4056 16.5598 19.2496 15.4991 17.9485C14.9728 17.3021 14.5046 16.6101 14.1773 15.8312C14.111 15.6737 14.1234 15.5701 14.2519 15.4417C14.7449 14.9651 15.2256 14.4762 15.7104 13.9873C16.3858 13.3077 16.3858 12.5122 15.7062 11.8285C15.3209 11.439 14.9356 11.0578 14.5502 10.6683C14.1524 10.2705 13.7588 9.86859 13.3569 9.47495C12.7063 8.84099 11.8942 8.84099 11.2478 9.4791C10.7506 9.96804 10.2741 10.4694 9.76855 10.9501C9.30033 11.3934 9.06415 11.9362 9.01443 12.5702C8.9357 13.6019 9.18846 14.5757 9.5448 15.5245C10.2741 17.4886 11.3845 19.233 12.7312 20.8324C14.5502 22.9953 16.7214 24.7066 19.2614 25.9414C20.405 26.4966 21.5901 26.9234 22.8787 26.9939C23.7654 27.0436 24.5361 26.8198 25.1535 26.1279C25.5762 25.6555 26.0527 25.2246 26.5002 24.7729C27.1631 24.1017 27.1673 23.2895 26.5085 22.6266C25.7212 21.8351 24.9298 21.0479 24.1384 20.2606Z" fill="#3B322D"/>
    </svg>
