<svg width="78" height="78" viewBox="0 0 78 78" fill="none" xmlns="http://www.w3.org/2000/svg">
<path d="M66.5 70.25H51.5C49.4325 70.25 47.75 68.5675 47.75 66.5C47.75 64.4325 49.4325 62.75 51.5 62.75H66.5C68.5675 62.75 70.25 64.4325 70.25 66.5C70.25 68.5675 68.5675 70.25 66.5 70.25Z" fill="#FF6E40"/>
<path d="M15.25 25.25H16.5V23.5075C16.5 21.1275 17.5063 18.88 19.2325 17.2987C19.8175 19.015 21.4437 20.25 23.3587 20.25H34.955C36.7887 20.25 38.3363 19.03 38.8338 17.3587C40.52 18.9362 41.5 21.1562 41.5 23.5075V25.25H42.75C43.7875 25.25 44.7263 25.6712 45.405 26.3525L46.4275 23.7962C47.305 21.6025 47.75 19.2912 47.75 16.93C47.75 11.525 45.3962 6.40748 41.2925 2.89123L37.9325 0.0112305L37.19 0.38248C34.9363 1.50998 28.9875 3.18373 20.4425 5.09623C15.9137 6.10998 12.75 10.0662 12.75 14.715V14.7325L12.305 15.1775C10.98 16.5025 10.25 18.265 10.25 20.1387C10.25 21.2212 10.5063 22.3062 10.99 23.2762L12.5538 26.4025C13.2363 25.695 14.1888 25.25 15.25 25.25V25.25Z" fill="#FF6E40"/>
<path d="M24 26.5C24.6887 26.5 25.25 27.0613 25.25 27.75H27.75C27.75 25.6825 26.0675 24 24 24C21.9325 24 20.25 25.6825 20.25 27.75H22.75C22.75 27.0613 23.3113 26.5 24 26.5Z" fill="#EFE7E2"/>
<path d="M34 26.5C34.6887 26.5 35.25 27.0613 35.25 27.75H37.75C37.75 25.6825 36.0675 24 34 24C31.9325 24 30.25 25.6825 30.25 27.75H32.75C32.75 27.0613 33.3113 26.5 34 26.5Z" fill="#EFE7E2"/>
<path d="M35.1217 33.3375L35.1854 33.145L32.8142 32.3538L32.7504 32.5475C32.2117 34.1638 30.7042 35.25 29.0004 35.25C27.2967 35.25 25.7892 34.1638 25.2504 32.5463L25.1867 32.3538L22.8154 33.145L22.8792 33.3363C23.7579 35.9775 26.2179 37.75 29.0004 37.75C31.7829 37.75 34.2429 35.9775 35.1217 33.3375V33.3375Z" fill="#EFE7E2"/>
<path d="M30.7529 9.25623L35.7529 5.50623L37.2529 7.50623L32.2529 11.2562L30.7529 9.25623Z" fill="#EFE7E2"/>
<path d="M74.5263 57.8025C74.975 57.0537 75.25 56.1862 75.25 55.25C75.25 53.1262 73.9138 51.32 72.0438 50.5962C72.4838 49.8937 72.75 49.07 72.75 48.1813C72.75 45.8813 71.03 43.9312 68.7463 43.6462L68.3337 43.595C64.665 43.1362 61.5325 40.7188 60.16 37.2863L59.605 35.8988L50.6412 41.5C48.8312 42.6312 47.75 44.5825 47.75 46.7175C47.75 47.4812 47.905 48.2137 48.1638 48.8975C47.5838 48.7137 46.9962 48.5537 46.3887 48.4475L39.8187 47.2875C37.7362 46.92 36.1025 45.2712 35.7563 43.1862L35.4175 41.1512C38.3125 39.6162 40.5888 37.0762 41.795 34H42.75C45.5075 34 47.75 31.7575 47.75 29C47.75 26.2425 45.5075 24 42.75 24V23.5062C42.75 21.075 41.8137 18.7275 40.175 16.9513C40.21 16.705 40.25 16.46 40.25 16.205C40.25 15.3875 40.0563 14.5688 39.6913 13.8363L38.8688 12.19L36.6325 13.3087L37.455 14.955C37.6487 15.3413 37.75 15.7738 37.75 16.205C37.75 17.7463 36.4962 19 34.955 19H30.5125C30.765 18.3625 31.1838 17.7962 31.7725 17.4037L33.4425 16.29L32.0562 14.21L30.3862 15.3238C29.09 16.1875 28.2125 17.5113 27.8913 19H25.25C25.25 17.0438 26.185 15.1738 27.75 14L29.75 12.5L28.25 10.5L26.25 12C24.075 13.6312 22.7738 16.2213 22.7538 18.9388C21.3288 18.6563 20.25 17.3987 20.25 15.8912C20.25 14.315 21.0025 12.81 22.2638 11.865L24.75 10L23.25 8L20.7637 9.865C18.8762 11.28 17.75 13.5325 17.75 15.8912C17.75 16.2437 17.7913 16.585 17.8538 16.9188C16.1963 18.7013 15.25 21.0575 15.25 23.5062V24C12.4925 24 10.25 26.2425 10.25 29C10.25 31.7575 12.4925 34 15.25 34H16.205C17.4112 37.0762 19.6875 39.6162 22.5825 41.1512L22.2437 43.1862C21.8962 45.2712 20.2638 46.92 18.1813 47.2875L11.6112 48.4475C5.0275 49.6075 0.25 55.3025 0.25 61.9875V77.75H72.75C75.5075 77.75 77.75 75.5075 77.75 72.75V61.5C77.75 59.6125 76.3438 58.0612 74.5263 57.8025V57.8025ZM70.25 57.75H47.75C46.3712 57.75 45.25 56.6287 45.25 55.25C45.25 53.8712 46.3712 52.75 47.75 52.75H70.25C71.6288 52.75 72.75 53.8712 72.75 55.25C72.75 56.6287 71.6288 57.75 70.25 57.75ZM51.9663 43.6187L58.4688 39.5562C60.4013 43.115 63.9475 45.5662 68.025 46.075L68.4375 46.1262C69.4712 46.2562 70.25 47.1388 70.25 48.1813C70.25 49.3225 69.3213 50.25 68.18 50.25H52.9537L52.7475 50.18C51.2538 49.6837 50.25 48.2925 50.25 46.7175C50.25 45.45 50.8913 44.2912 51.9663 43.6187V43.6187ZM45.25 29C45.25 30.3787 44.1288 31.5 42.75 31.5H42.5112C42.6612 30.6875 42.75 29.855 42.75 29V26.5C44.1288 26.5 45.25 27.6212 45.25 29ZM15.25 31.5C13.8712 31.5 12.75 30.3787 12.75 29C12.75 27.6212 13.8712 26.5 15.25 26.5V29C15.25 29.855 15.3387 30.6875 15.4887 31.5H15.25ZM17.75 29V23.5062C17.75 22.0362 18.2087 20.6113 19.035 19.42C20.0637 20.6788 21.61 21.5 23.3587 21.5H34.955C36.6075 21.5 38.0675 20.7238 39.0387 19.5338C39.8162 20.7025 40.25 22.085 40.25 23.5062V29C40.25 35.2025 35.2025 40.25 29 40.25C22.7975 40.25 17.75 35.2025 17.75 29ZM24.7087 43.5962L24.9512 42.14C26.2325 42.535 27.5913 42.75 29 42.75C30.4087 42.75 31.7675 42.535 33.0475 42.14L33.29 43.5962C33.705 46.0887 35.3537 48.1462 37.5825 49.1662C35.41 51.4287 32.395 52.75 29.2113 52.75H28.7887C25.6037 52.75 22.59 51.4287 20.4162 49.1662C22.645 48.1462 24.2937 46.0887 24.7087 43.5962ZM40.9212 75.25H12.75V62.75H10.25V75.25H2.75V61.9875C2.75 56.5175 6.65875 51.8587 12.045 50.9087L17.7538 49.9012C20.4213 53.2525 24.475 55.25 28.7887 55.25H29.2113C33.525 55.25 37.5788 53.2525 40.2463 49.9L45.475 50.8225C43.865 51.655 42.75 53.3162 42.75 55.25C42.75 56.1862 43.025 57.0537 43.4737 57.8025C41.6562 58.0612 40.25 59.6125 40.25 61.5V72.75C40.25 73.66 40.4937 74.5137 40.9212 75.25ZM75.25 72.75C75.25 74.1287 74.1288 75.25 72.75 75.25H45.25C43.8712 75.25 42.75 74.1287 42.75 72.75V61.5C42.75 60.81 43.3113 60.25 44 60.25H74C74.6887 60.25 75.25 60.81 75.25 61.5V72.75Z" fill="#EFE7E2"/>
</svg>
